<?xml version="1.0" encoding="UTF-8"?>
<svg id="Ebene_1" xmlns="http://www.w3.org/2000/svg" version="1.1" viewBox="0 0 198.47 141.93">
  <!-- Generator: Adobe Illustrator 30.0.0, SVG Export Plug-In . SVG Version: 2.1.1 Build 123)  -->
  <defs>
    <style>
      .st0 {
        fill-rule: evenodd;
      }

      .st0, .st1 {
        fill: #29306a;
      }
    </style>
  </defs>
  <g>
    <path class="st1" d="M45.47,110.04c-2.18.78-6.37,1.88-10.85,1.88-5.69,0-10.02-1.43-13.21-4.49-3.01-2.87-4.74-7.29-4.73-12.38.03-10.69,7.63-17.51,18.78-17.51,4.15,0,7.38.84,8.95,1.58l-1.37,4.96c-1.84-.81-4.09-1.44-7.66-1.44-7.17,0-12.24,4.25-12.24,12.08s4.72,12.19,11.7,12.19c2.23,0,3.87-.29,4.65-.67v-8.41h-5.93v-4.84h11.91v17.04Z"/>
    <path class="st1" d="M51.68,76.08h6.16v35.5h-6.16v-35.5Z"/>
    <path class="st1" d="M78.22,111.58l-.42-2.71h-.15c-1.48,1.92-4.02,3.26-7.17,3.26-4.94,0-7.67-3.53-7.67-7.24,0-6.14,5.47-9.25,14.44-9.22v-.4c0-1.6-.63-4.26-4.94-4.24-2.38,0-4.89.77-6.54,1.82l-1.22-4c1.84-1.12,4.99-2.16,8.82-2.16,7.81,0,10.04,4.92,10.04,10.26v8.77c0,2.21.11,4.36.38,5.86h-5.55ZM77.4,99.66c-4.34-.06-8.5.86-8.5,4.56,0,2.38,1.56,3.51,3.51,3.51,2.46,0,4.23-1.59,4.82-3.37.13-.43.17-.91.17-1.34v-3.36Z"/>
    <path class="st1" d="M89.63,105.92c1.36.84,4.01,1.78,6.21,1.78,2.71,0,3.92-1.14,3.92-2.73s-1-2.49-4-3.55c-4.76-1.63-6.75-4.23-6.73-7.11,0-4.28,3.56-7.62,9.24-7.62,2.68,0,5.03.67,6.46,1.45l-1.22,4.32c-1.02-.58-2.99-1.4-5.15-1.4s-3.41,1.08-3.41,2.58,1.17,2.29,4.25,3.41c4.43,1.57,6.47,3.83,6.5,7.41,0,4.44-3.46,7.64-9.89,7.64-2.95,0-5.62-.71-7.42-1.71l1.24-4.48Z"/>
    <path class="st1" d="M110.48,105.92c1.36.84,4.01,1.78,6.21,1.78,2.71,0,3.92-1.14,3.92-2.73s-1-2.49-4-3.55c-4.76-1.63-6.75-4.23-6.73-7.11,0-4.28,3.56-7.62,9.24-7.62,2.68,0,5.03.67,6.46,1.45l-1.22,4.32c-1.02-.58-2.99-1.4-5.15-1.4s-3.41,1.08-3.41,2.58,1.17,2.29,4.25,3.41c4.43,1.57,6.47,3.83,6.5,7.41,0,4.44-3.46,7.64-9.89,7.64-2.95,0-5.62-.71-7.42-1.71l1.24-4.48Z"/>
    <path class="st1" d="M138.15,80.43c0,1.84-1.33,3.32-3.51,3.32-2.04,0-3.38-1.48-3.37-3.32,0-1.88,1.38-3.33,3.45-3.33s3.41,1.44,3.44,3.33ZM131.63,111.58v-24.34h6.16v24.34h-6.16Z"/>
    <path class="st1" d="M145.1,111.58v-19.76h-3.3v-4.59h3.3v-1.04c0-3.15.85-6.33,2.96-8.33,1.8-1.71,4.23-2.35,6.37-2.35,1.63,0,2.95.27,3.91.6l-.43,4.73c-.67-.24-1.48-.44-2.62-.44-3.05,0-4.06,2.56-4.06,5.54v1.27h5.32v4.59h-5.28v19.76h-6.16Z"/>
    <path class="st1" d="M164.22,87.24l4.39,13.05c.48,1.51,1.01,3.37,1.37,4.72h.14c.38-1.37.83-3.2,1.29-4.77l3.81-13h6.56l-6.1,16.61c-3.34,9.09-5.6,13.12-8.47,15.65-2.42,2.11-4.92,2.91-6.46,3.11l-1.39-5.18c1.03-.26,2.32-.81,3.55-1.68,1.17-.77,2.53-2.21,3.38-3.88.24-.42.39-.78.39-1.08,0-.27-.07-.63-.32-1.2l-8.94-22.35h6.78Z"/>
  </g>
  <path class="st0" d="M180.66,49.9v-.07h-.07c-.04-.13-.1-.11-.18-.18-.14-.14-.26-.34-.44-.44v-.07c-.1-.03-.08,0-.11-.11-.21-.06-.43-.43-.58-.58-.24-.22-.49-.43-.69-.69h-.07c-.1-.11-.19-.22-.29-.33h-.07c-.06-.07-.12-.15-.18-.22h-.07s-.02-.05-.04-.07c-.17-.17-.37-.31-.51-.51h-.07c-.04-.13-.1-.11-.18-.18-.13-.12-.21-.35-.4-.4v-.07c-.1-.03-.12-.04-.15-.15-.1-.03-.12-.04-.15-.15h-.07c-.52-.57-1.08-1.1-1.63-1.63v-.07c-.32-.24-.55-.59-.87-.83h-.07l-.07-.07h-.07v-.04h-.07v-.04h-.07v-.04h-.11v-.04c-.27-.09-.59.07-.76.11-.44-.45-.87-.9-1.31-1.34h-.04c.05-.08.1-.17.15-.25.02-.01.05-.02.07-.04.01-.04.02-.07.04-.11.02-.01.05-.02.07-.04v-.07s.1-.07.15-.11v-.07s.07-.05.11-.07v-.07s.05-.02.07-.04v-.07s.07-.05.11-.07v-.07h.04v-.07s.05-.02.07-.04v-.07s.05-.02.07-.04v-.07s.07-.05.11-.07v-.07s.05-.02.07-.04c.02-.07.05-.15.07-.22h.04s.02-.07.04-.11c.02-.01.05-.02.07-.04l.04-.15s.05-.02.07-.04c.01-.05.02-.1.04-.15h.04v-.07h.04v-.07l.07-.07v-.07s.05-.02.07-.04c.01-.05.02-.1.04-.15h.04v-.07h.04c.02-.07.05-.15.07-.22h.04v-.11h.04v-.07h.04c.02-.07.05-.15.07-.22h.04v-.11h.04v-.07h.04v-.11h.04v-.07h.04c.02-.11.05-.22.07-.33h.04c.01-.07.02-.15.04-.22h.04v-.07h.04c.01-.07.02-.15.04-.22h.04c.02-.12.05-.24.07-.36h.04c.01-.1.02-.19.04-.29h.04v-.11h.04v-.11h.04c.01-.44.24-.87.22-1.31h.04v-.25h.04v-.29h.04v-.36h.04v-.62h.04v-.76s-.05-.01-.04-.11h.04c-.09-.15-.01-.45-.04-.65h-.04v-.4h-.04v-.33h-.04v-.25h-.04v-.22h-.04v-.22h-.04v-.15h-.04c-.01-.12-.02-.24-.04-.36h-.04c-.02-.16-.05-.31-.07-.47h-.04c-.01-.08-.02-.17-.04-.25h-.04v-.11h-.04v-.15h-.04v-.11h-.04v-.11h-.04v-.11h-.04v-.11h-.04v-.07h-.04c-.01-.07-.02-.15-.04-.22h-.04v-.11h-.04v-.07h-.04v-.11h-.04v-.11h-.04s-.02-.1-.04-.15h-.04v-.11h-.04l-.04-.15h-.04c-.01-.06-.02-.12-.04-.18h-.04c-.02-.07-.05-.15-.07-.22h-.04v-.07h-.04v-.07h-.04v-.07h-.04v-.07h-.04v-.07h-.04v-.07h-.04v-.07l-.07-.07v-.07s-.05-.02-.07-.04c-.01-.05-.02-.1-.04-.15-.02-.01-.05-.02-.07-.04-.01-.05-.02-.1-.04-.15-.02-.01-.05-.02-.07-.04v-.07h-.04s-.02-.1-.04-.15c-.02-.01-.05-.02-.07-.04v-.07s-.05-.02-.07-.04v-.07s-.05-.02-.07-.04v-.07s-.05-.02-.07-.04v-.07s-.05-.02-.07-.04v-.07s-.05-.02-.07-.04v-.07h-.04s-.02-.07-.04-.11c-.02-.01-.05-.02-.07-.04v-.07s-.07-.05-.11-.07v-.07s-.07-.05-.11-.07v-.07s-.1-.07-.15-.11c-.01-.04-.02-.07-.04-.11-.02-.01-.05-.02-.07-.04v-.07s-.07-.05-.11-.07v-.07c-.08-.07-.17-.15-.25-.22v-.07c-.18-.17-.36-.34-.54-.51v-.07h-.07v-.07c-.13-.04-.34-.27-.44-.36-.01-.02-.02-.05-.04-.07h-.07c-.07-.08-.15-.17-.22-.25h-.07s-.07-.1-.11-.15h-.07s-.02-.05-.04-.07c-.04-.01-.07-.02-.11-.04l-.11-.15h-.07s-.05-.07-.07-.11h-.07s-.05-.07-.07-.11h-.07s-.05-.07-.07-.11h-.07s-.02-.05-.04-.07c-.04-.01-.07-.02-.11-.04v-.04h-.07s-.02-.05-.04-.07h-.07s-.02-.05-.04-.07h-.07s-.02-.05-.04-.07h-.07s-.02-.05-.04-.07c-.07-.02-.15-.05-.22-.07-.01-.02-.02-.05-.04-.07-.04-.01-.07-.02-.11-.04v-.04h-.07l-.07-.07h-.07v-.04h-.07s-.02-.05-.04-.07h-.07l-.07-.07h-.07v-.04h-.07v-.04h-.07v-.04h-.07v-.04h-.07v-.04h-.07v-.04c-.07-.02-.15-.05-.22-.07v-.04h-.11v-.04s-.1-.02-.15-.04v-.04h-.11v-.04h-.07v-.04h-.11v-.04c-.06-.01-.12-.02-.18-.04v-.04h-.07v-.04h-.11v-.04h-.07v-.04c-.7-.14-1.41-.5-2.14-.54v-.04h-.15v-.04h-.22v-.04c-.33-.02-.65-.05-.98-.07v-.04c-.51.04-1.2-.11-1.74-.04v.04h-.58v.04h-.4v.04h-.36v.04h-.25v.04h-.25v.04h-.18v.04h-.18v.04h-.18v.04h-.11v.04h-.18v.04h-.11v.04h-.18v.04c-.08.01-.17.02-.25.04v.04h-.11v.04h-.11v.04h-.11v.04h-.15v.04h-.11v.04h-.11v.04h-.11v.04c-.07.01-.15.02-.22.04v.04h-.07v.04h-.11v.04h-.07v.04h-.11v.04l-.15.04v.04c-.06.01-.12.02-.18.04v.04h-.11v.04h-.07v.04s-.1.02-.15.04v.04h-.07v.04h-.07v.04h-.07v.04h-.07v.04h-.07v.04h-.07v.04h-.07v.04h-.07l-.07.07h-.07s-.02.05-.04.07h-.07l-.07.07h-.07v.04h-.07s-.02.05-.04.07h-.07v.04h-.07s-.02.05-.04.07h-.07s-.02.05-.04.07h-.07s-.02.05-.04.07h-.07s-.02.05-.04.07h-.07s-.02.05-.04.07h-.07s-.02.05-.04.07h-.07v.04s-.07.02-.11.04c-.01.02-.02.05-.04.07h-.07s-.05.07-.07.11h-.07s-.07.1-.11.15c-.04.01-.07.02-.11.04-.01.02-.02.05-.04.07h-.07s-.02.05-.04.07h-.04s-.02.05-.04.07h-.07c-.2.3-.62.45-.8.76h-.07c-.03.1,0,.08-.11.11-.24.4-.68.63-.91,1.05-.04.02-.07.05-.11.07v.07c-.06.05-.12.1-.18.15v.07s-.05.02-.07.04c-.01.04-.02.07-.04.11h-.04v.07s-.07.05-.11.07v.07s-.05.02-.07.04v.07s-.07.05-.11.07v.07s-.05.02-.07.04v.07s-.05.02-.07.04c-.01.04-.02.07-.04.11h-.04s-.02.1-.04.15c-.04.02-.07.05-.11.07v.07s-.05.02-.07.04v.07h-.04v.07s-.05.02-.07.04c-.02.07-.05.15-.07.22-.02.01-.05.02-.07.04v.07l-.07.07v.07h-.04v.07h-.04v.07h-.04v.07h-.04v.07h-.04v.07h-.04c-.02.07-.05.15-.07.22h-.04v.11h-.04c-.02.07-.05.15-.07.22h-.04v.07h-.04v.07h-.04v.11h-.04s-.02.1-.04.15h-.04v.11h-.04v.07h-.04v.11h-.04v.07h-.04c-.02.11-.05.22-.07.33h-.04v.11h-.04v.11h-.04v.11h-.04v.11h-.04v.11h-.04v.11h-.04c-.05.56-.33,1.13-.33,1.71h-.04v.22h-.04v.29h-.04v.36h-.04c-.12,1.49.01,3.04.33,4.5h.04c.02.13.05.27.07.4h.04c.01.08.02.17.04.25h.04v.11h.04v.11h.04v.11h.04c.01.07.02.15.04.22h.04v.07h.04c.02.11.05.22.07.33h.04v.07h.04v.11h.04l.04.15h.04v.11h.04s.02.1.04.15h.04v.07h.04v.11h.04v.07h.04s.02.1.04.15h.04v.07h.04v.07h.04v.07h.04v.07h.04v.07h.04v.07h.04v.07h.04v.07h.04v.07l.07.07v.07s.05.02.07.04c.01.05.02.1.04.15.02.01.05.02.07.04.02.07.05.15.07.22.02.01.05.02.07.04v.07s.05.02.07.04v.07s.05.02.07.04v.07s.05.02.07.04l.04.15s.07.05.11.07v.07s.05.02.07.04c.01.04.02.07.04.11h.04v.07s.05.02.07.04c.01.04.02.07.04.11.04.02.07.05.11.07v.07l.15.11v.07c.07.06.15.12.22.18v.07s.07.05.11.07c.08.11.06.14.18.22v.07h.07v.07h.07c.15.32.63.6.83.91h.07v.04c.11.06.18.16.25.25h.07c.05.06.1.12.15.18h.07s.07.1.11.15h.07s.07.1.11.15c.04.01.07.02.11.04.01.02.02.05.04.07h.07s.02.05.04.07h.07s.05.07.07.11h.07s.02.05.04.07c.04.01.07.02.11.04v.04h.07s.02.05.04.07c.04.01.07.02.11.04v.04h.07s.02.05.04.07c.07.02.15.05.22.07.01.02.02.05.04.07l.15.04s.02.05.04.07c.04.01.07.02.11.04v.04h.07l.07.07h.07v.04h.07v.04h.07s.02.05.04.07h.11s.02.05.04.07c.11.04.22.07.33.11v.04h.07v.04h.07v.04h.07v.04c.07.02.15.05.22.07v.04h.11v.04l.15.04v.04h.11v.04s.1.02.15.04v.04h.11v.04h.07v.04c.11.02.22.05.33.07v.04h.11v.04h.11v.04h.11v.04h.11v.04c.08.01.17.02.25.04v.04c.08.01.17.02.25.04v.04c.8.14,1.58.39,2.4.4v.04c.5-.04,1.11.1,1.63.04v-.04c1.58-.02,3.1-.42,4.57-.94v-.04h.07v-.04h.11v-.04s.1-.02.15-.04v-.04h.11v-.04h.07v-.04l.15-.04v-.04h.07v-.04h.07v-.04h.07v-.04h.07v-.04h.07v-.04h.07v-.04h.07v-.04h.07v-.04h.07l.07-.07h.07s.02-.05.04-.07h.07l.07-.07h.07v-.04h.07s.02-.05.04-.07c.04-.01.07-.02.11-.04v-.04s.1-.02.15-.04v-.04h.07s.02-.05.04-.07h.07v-.04h.07v-.04h.07s.02-.05.04-.07c.05-.01.1-.02.15-.04v-.04c.31.07.4.4.65.54v.07s.05.02.07.04c.22.26.46.48.69.73-.01.22-.02.44-.04.65.18.61.66.94,1.13,1.27.02.04.05.07.07.11.04.01.07.02.11.04.01.02.02.05.04.07.08.08.17.18.29.22v.07h.07c.25.4.69.65.94,1.05h.07s.02.07.04.11h.07s.05.07.07.11h.04v.07c.33.29.62.62.94.91v.07h.07c.03.1,0,.08.11.11.03.13.14.21.22.29.02.01.05.02.07.04v.07c.08.07.17.15.25.22v.07c.25.24.51.48.76.73.01.04.02.07.04.11.24.18.41.44.65.62v.07s.05.02.07.04v.04c.19.18.39.36.58.54v.07c.22.17.4.38.58.58h.07c.06.07.12.15.18.22h.07s.05.07.07.11h.07s.05.07.07.11c.05.01.1.02.15.04.01.02.02.05.04.07h.07v.04h.07v.04h.11v.04h.07v.04h.11v.04c.15.06.88.18,1.13.11v-.04h.22v-.04h.11v-.04c.08-.01.17-.02.25-.04v-.04l.15-.04v-.04h.07v-.04h.07l.07-.07h.07s.02-.05.04-.07h.07v-.04s.07-.02.11-.04c.01-.02.02-.05.04-.07h.07c.1-.16.26-.27.4-.4v-.07s.07-.05.11-.07c.01-.05.02-.1.04-.15.02-.01.05-.02.07-.04.01-.05.02-.1.04-.15h.04c.02-.07.05-.15.07-.22h.04v-.11h.04v-.11h.04c.26-1.22-.18-2.3-1.05-2.94ZM171.22,37.12h-.04s-.02.1-.04.15h-.04v.07h-.04v.11h-.04c-.02.07-.05.15-.07.22h-.04v.07h-.04v.07h-.04v.07h-.04v.07h-.04v.07l-.07.07v.07s-.05.02-.07.04v.07h-.04v.07l-.07.07v.07h-.04s-.02.07-.04.11c-.02.01-.05.02-.07.04-.02.07-.05.15-.07.22-.02.01-.05.02-.07.04v.07h-.04s-.02.07-.04.11c-.02.01-.05.02-.07.04v.07s-.07.05-.11.07v.07s-.05.02-.07.04v.07s-.07.05-.11.07v.07s-.05.02-.07.04v.07s-.1.07-.15.11v.07c-.08.07-.17.15-.25.22v.07c-.11.1-.22.19-.33.29v.07c-.23.18-.42.4-.62.62h-.07c-.06.07-.12.15-.18.22h-.07c-.05.06-.1.12-.15.18h-.07s-.02.05-.04.07h-.04s-.02.05-.04.07h-.07s-.02.05-.04.07h-.07s-.07.1-.11.15h-.07s-.02.05-.04.07h-.07s-.05.07-.07.11h-.07s-.02.05-.04.07l-.15.04s-.02.05-.04.07h-.07s-.02.05-.04.07h-.07s-.02.05-.04.07h-.07v.04h-.07s-.02.05-.04.07c-.07.02-.15.05-.22.07-.01.02-.02.05-.04.07h-.07l-.07.07h-.07v.04h-.07v.04h-.07v.04h-.07v.04h-.07v.04h-.07v.04c-.07.02-.15.05-.22.07v.04h-.11v.04s-.1.02-.15.04v.04h-.11v.04h-.07v.04h-.11v.04h-.11v.04h-.07v.04h-.11v.04c-.07.01-.15.02-.22.04v.04h-.07v.04h-.15v.04h-.11v.04h-.11v.04h-.15v.04c-.1.01-.19.02-.29.04v.04c-.1.01-.19.02-.29.04v.04c-1.12.19-2.44.3-3.59.18v-.04c-.38.03-.76-.15-1.13-.15v-.04h-.15v-.04h-.15v-.04h-.15v-.04h-.11v-.04c-.1-.01-.19-.02-.29-.04v-.04c-.22-.06-.44-.12-.65-.18v-.04h-.07v-.04c-.07-.01-.15-.02-.22-.04v-.04h-.07v-.04h-.11v-.04h-.07v-.04h-.11v-.04c-.07-.02-.15-.05-.22-.07v-.04h-.07v-.04h-.07v-.04h-.07v-.04h-.07l-.07-.07h-.07s-.02-.05-.04-.07h-.07l-.07-.07h-.07v-.04h-.07v-.04h-.07s-.02-.05-.04-.07c-.05-.01-.1-.02-.15-.04-.01-.02-.02-.05-.04-.07h-.07s-.02-.05-.04-.07h-.07s-.02-.05-.04-.07c-.07-.02-.15-.05-.22-.07-.01-.02-.02-.05-.04-.07h-.07s-.02-.05-.04-.07h-.07s-.05-.07-.07-.11h-.07s-.02-.05-.04-.07h-.07s-.05-.07-.07-.11h-.07c-.07-.08-.15-.17-.22-.25h-.07l-.15-.18h-.07c-.07-.1-.15-.19-.25-.25v-.04h-.07s-.02-.05-.04-.07c-.12-.11-.24-.22-.36-.33v-.07h-.07c-.04-.13-.24-.3-.33-.4-.02-.01-.05-.02-.07-.04-.01-.04-.02-.07-.04-.11-.04-.02-.07-.05-.11-.07v-.07s-.1-.07-.15-.11v-.07s-.07-.05-.11-.07v-.07s-.07-.05-.11-.07v-.07s-.07-.05-.11-.07v-.07s-.05-.02-.07-.04c-.01-.04-.02-.07-.04-.11h-.04v-.07s-.05-.02-.07-.04c-.01-.04-.02-.07-.04-.11h-.04s-.02-.1-.04-.15c-.02-.01-.05-.02-.07-.04-.01-.04-.02-.07-.04-.11h-.04c-.02-.07-.05-.15-.07-.22-.02-.01-.05-.02-.07-.04v-.07l-.07-.07v-.07h-.04v-.07h-.04v-.07h-.04v-.07s-.05-.02-.07-.04v-.11h-.04v-.07h-.04c-.02-.07-.05-.15-.07-.22h-.04v-.11h-.04v-.07h-.04s-.02-.1-.04-.15h-.04v-.11h-.04v-.07h-.04v-.11h-.04v-.07h-.04v-.11h-.04v-.07h-.04v-.15h-.04v-.11h-.04v-.11h-.04v-.11h-.04c-.28-1.19-.5-2.4-.44-3.63h.04v-.58h.04v-.33h.04v-.25h.04v-.22h.04v-.25h.04c.01-.11.02-.22.04-.33h.04v-.15h.04v-.15h.04v-.15h.04v-.18h.04v-.11h.04v-.11h.04v-.11h.04v-.15h.04v-.11h.04v-.07h.04c.01-.07.02-.15.04-.22h.04v-.07h.04v-.11h.04v-.11h.04s.02-.1.04-.15h.04v-.11h.04v-.07h.04v-.11h.04c.02-.07.05-.15.07-.22h.04v-.07h.04v-.07h.04v-.07h.04v-.07h.04v-.07h.04v-.07l.07-.07v-.07s.05-.02.07-.04v-.07h.04v-.07l.07-.07v-.07s.05-.02.07-.04v-.07s.05-.02.07-.04v-.07s.05-.02.07-.04l.04-.15s.05-.02.07-.04v-.07h.04s.02-.07.04-.11c.02-.01.05-.02.07-.04v-.07s.07-.05.11-.07v-.07s.1-.07.15-.11v-.07l.15-.11v-.07c.06-.05.12-.1.18-.15v-.07c.11-.1.22-.19.33-.29v-.07c.25-.21.48-.44.69-.69h.07c.08-.1.17-.19.25-.29h.07s.07-.1.11-.15h.07l.11-.15h.07s.05-.07.07-.11h.07s.05-.07.07-.11h.07s.05-.07.07-.11h.07s.02-.05.04-.07c.04-.01.07-.02.11-.04v-.04h.07s.02-.05.04-.07c.05-.01.1-.02.15-.04.01-.02.02-.05.04-.07.05-.01.1-.02.15-.04.01-.02.02-.05.04-.07.04-.01.07-.02.11-.04v-.04c.07-.02.15-.05.22-.07.01-.02.02-.05.04-.07h.07l.07-.07h.07v-.04h.07v-.04h.07v-.04h.07v-.04h.07v-.04c.07-.02.15-.05.22-.07v-.04h.11v-.04s.1-.02.15-.04v-.04h.11v-.04h.07v-.04h.11v-.04h.07v-.04c.11-.02.22-.05.33-.07v-.04h.11v-.04h.11v-.04h.11v-.04c.08-.01.17-.02.25-.04v-.04h.15v-.04c.15-.02.29-.05.44-.07v-.04c.12-.01.24-.02.36-.04v-.04h.11v-.04c.59-.04,1.17-.17,1.78-.15v-.04h.54v.04h.65v.04c.74,0,1.46.21,2.18.36v.04h.11v.04h.11v.04h.11v.04h.11v.04h.11v.04h.11v.04c.07.01.15.02.22.04v.04h.07v.04h.11v.04l.15.04v.04c.07.01.15.02.22.04v.04c.07.02.15.05.22.07v.04h.07v.04h.07v.04h.07v.04h.07v.04h.07v.04h.07v.04h.07v.04h.07l.07.07h.07s.02.05.04.07c.07.02.15.05.22.07v.04s.07.02.11.04c.01.02.02.05.04.07h.07v.04s.07.02.11.04c.01.02.02.05.04.07h.07s.05.07.07.11h.07s.02.05.04.07h.07s.05.07.07.11h.07s.05.07.07.11h.07s.05.07.07.11h.07s.07.1.11.15h.07c.05.06.1.12.15.18h.07l.15.18h.07c.26.28.51.56.8.8v.07c.06.05.12.1.18.15v.07h.04s.05.07.07.11c.02.01.05.02.07.04v.07s.07.05.11.07v.07s.05.02.07.04v.07s.05.02.07.04c.01.04.02.07.04.11.05.04.1.07.15.11v.07s.07.05.11.07v.07s.05.02.07.04c.01.04.02.07.04.11h.04v.07s.05.02.07.04v.07s.05.02.07.04v.07s.05.02.07.04c.01.05.02.1.04.15.02.01.05.02.07.04v.07l.07.07v.07h.04v.07s.05.02.07.04c.01.05.02.1.04.15h.04v.07h.04c.02.07.05.15.07.22h.04v.11h.04v.07h.04c.02.07.05.15.07.22h.04c.01.07.02.15.04.22h.04l.04.15h.04c.01.07.02.15.04.22h.04v.07h.04c.02.12.05.24.07.36h.04v.11h.04v.11h.04v.11h.04c.01.1.02.19.04.29h.04v.11h.04c-.01.39.21.8.18,1.2h.04v.29h.04c.12,1.52-.03,3.14-.4,4.46h-.04v.11h-.04v.11h-.04v.11h-.04v.11h-.04c-.01.07-.02.15-.04.22h-.04v.07h-.04c-.01.07-.02.15-.04.22ZM168.46,35.63h-.07s-.02-.05-.04-.07l-.15-.04s-.02-.05-.04-.07l-.15-.04s-.02-.05-.04-.07h-.07s-.02-.05-.04-.07h-.07v-.04h-.07s-.02-.05-.04-.07c-.05-.01-.1-.02-.15-.04-.01-.02-.02-.05-.04-.07-.05-.01-.1-.02-.15-.04-.01-.02-.02-.05-.04-.07-.05-.01-.1-.02-.15-.04-.01-.02-.02-.05-.04-.07-.05-.01-.1-.02-.15-.04-.01-.02-.02-.05-.04-.07h-.07s-.02-.05-.04-.07h-.07s-.02-.05-.04-.07l-.15-.04s-.02-.05-.04-.07h-.07s-.02-.05-.04-.07h-.07s-.02-.05-.04-.07h-.07s-.02-.05-.04-.07c-.05-.01-.1-.02-.15-.04-.01-.02-.02-.05-.04-.07-.04-.01-.07-.02-.11-.04v-.04c-.07-.02-.15-.05-.22-.07-.01-.02-.02-.05-.04-.07h-.07s-.02-.05-.04-.07c-.05-.01-.1-.02-.15-.04-.01-.02-.02-.05-.04-.07l-.11-.04v-.04s-.1-.02-.15-.04c-.01-.02-.02-.05-.04-.07-.04-.01-.07-.02-.11-.04v-.04s-.1-.02-.15-.04c-.01-.02-.02-.05-.04-.07-.05-.01-.1-.02-.15-.04-.01-.02-.02-.05-.04-.07h-.07v-.04h-.07s-.05-.07-.07-.11c-.05-.01-.1-.02-.15-.04-.01-.02-.02-.05-.04-.07h-.07s-.02-.05-.04-.07h-.07c-.09-.05-.13-.12-.25-.15v-.07c.18-.1.36-.19.54-.29.01-.02.02-.05.04-.07.05-.01.1-.02.15-.04.01-.02.02-.05.04-.07.05-.01.1-.02.15-.04.01-.02.02-.05.04-.07.05-.01.1-.02.15-.04.01-.02.02-.05.04-.07.04-.01.07-.02.11-.04v-.04c.07-.02.15-.05.22-.07.01-.02.02-.05.04-.07.16-.08.31-.17.47-.25v-.04h.04v-.04c-.24.01-.48.02-.73.04v.04c-.5.01-.99.02-1.49.04.02-.1.06-.17.11-.25.02-.01.05-.02.07-.04v-.07s.05-.02.07-.04v-.07s.05-.02.07-.04v-.07s.05-.02.07-.04v-.07s.05-.02.07-.04v-.07s.05-.02.07-.04v-.07s.05-.02.07-.04v-.07s.05-.02.07-.04v-.07h.04s.02-.07.04-.11c.02-.01.05-.02.07-.04v-.07s.1-.07.15-.11l.04-.15s.05-.02.07-.04c.01-.04.02-.07.04-.11.04-.02.07-.05.11-.07v-.07s.05-.02.07-.04c.01-.04.02-.07.04-.11h.04v-.07s.05-.02.07-.04v-.07s.05-.02.07-.04v-.07s.05-.02.07-.04v-.07s.05-.02.07-.04v-.07s.05-.02.07-.04v-.07s.05-.02.07-.04l.04-.15s.07-.05.11-.07v-.07s.05-.02.07-.04v-.07s.05-.02.07-.04c.01-.04.02-.07.04-.11h.04v-.07s.05-.02.07-.04c.01-.04.02-.07.04-.11h.04v-.07s.05-.02.07-.04v-.07s.05-.02.07-.04v-.07s.05-.02.07-.04v-.07s.05-.02.07-.04v-.07s.05-.02.07-.04v-.07s.05-.02.07-.04v-.07s.05-.02.07-.04c.07-.1.08-.19.18-.25v-.07c-.07.06-.15.12-.22.18v.04h-.07s-.07.1-.11.15h-.07c-.06.07-.12.15-.18.22h-.07c-.06.07-.12.15-.18.22h-.07c-.06.07-.12.15-.18.22h-.07v.07c-.08.02-.09.03-.15.07v.04h-.07v.04s-.1.07-.15.11c-.01.02-.02.05-.04.07h-.07s-.07.1-.11.15h-.07c-.05.06-.1.12-.15.18h-.07c-.07.08-.15.17-.22.25h-.07l-.15.18h-.07c-.05.06-.1.12-.15.18h-.07c-.07.08-.15.17-.22.25h-.07s-.02.05-.04.07h-.04s-.05.07-.07.11h-.07c-.06.07-.12.15-.18.22h-.07c-.05.06-.1.12-.15.18h-.07s-.07.1-.11.15h-.07l-.11.15h-.07c.07-.57.22-1.13.22-1.71h.04c.05-.15-.02-.33.07-.44v-.07c-.11.07-.11.15-.18.25-.04.02-.07.05-.11.07v.07s-.1.07-.15.11v.07s-.1.07-.15.11v.07c-.06.05-.12.1-.18.15v.07s-.1.07-.15.11v.07s-.07.05-.11.07v.07c-.06.05-.12.1-.18.15v.07s-.1.07-.15.11v.04h-.04c-.41-1.69-.82-3.39-1.23-5.08h-.04c-.05.93-.22,1.87-.25,2.8h-.04v.4h-.04v.36h-.04v.4h-.04v.44h-.04c.03.38-.09.72-.07,1.13-.12-.03-.17-.08-.25-.15v-.04h-.07s-.02-.05-.04-.07h-.04c-.08-.08-.09-.15-.22-.18v-.07c-.13-.04-.2-.14-.29-.22v-.04h-.07s-.02-.05-.04-.07c-.1-.08-.2-.14-.25-.25h-.07c-.06-.07-.12-.15-.18-.22h-.07c-.18-.25-.44-.41-.62-.65h-.07c-.11-.12-.22-.24-.33-.36l-.11-.04c-.15-.16-.29-.31-.44-.47h-.04c.03.12.08.23.15.33.02.01.05.02.07.04v.07l.07.07v.07h.04v.07s.05.02.07.04c.01.05.02.1.04.15.02.01.05.02.07.04v.07l.07.07v.07h.04v.07s.05.02.07.04c.02.07.05.15.07.22.02.01.05.02.07.04.01.04.02.07.04.11h.04v.07l.07.07v.07h.04v.07s.05.02.07.04c.01.05.02.1.04.15h.04v.07h.04v.07l.07.07v.07s.05.02.07.04v.07l.07.07.04.15s.05.02.07.04c.01.05.02.1.04.15h.04v.07h.04v.07h.04v.07l.07.07v.07s.05.02.07.04c.02.07.05.15.07.22.02.01.05.02.07.04v.07h.04c.04.07,0,.08.07.15v.04c-1.75-.25-3.48-.59-5.23-.8v-.04h-.11v.04c.09.04.16.06.25.11v.04h.11v.04h.07v.04h.07v.04s.1.02.15.04v.04h.11v.04c.07.02.15.05.22.07v.04h.07v.04h.11v.04h.07v.04s.1.02.15.04v.04h.11v.04s.1.02.15.04v.04h.11v.04s.1.02.15.04v.04h.07v.04h.11v.04s.1.02.15.04v.04h.11v.04s.1.02.15.04v.04h.07v.04h.11v.04l.15.04v.04h.07v.04h.11v.04h.07v.04s.1.02.15.04v.04h.11v.04h.07v.04h.11v.04s.1.02.15.04v.04c.15.05.29.1.44.15v.04c.07.02.15.05.22.07v.04h.07v.04h.11v.04s.1.02.15.04v.04h.11v.04s.1.02.15.04v.04h.11v.04h.04c-.08.12-.21.14-.33.22-.01.02-.02.05-.04.07-.05.01-.1.02-.15.04-.01.02-.02.05-.04.07l-.15.04s-.02.05-.04.07h-.07s-.02.05-.04.07h-.07s-.02.05-.04.07l-.15.04s-.02.05-.04.07h-.07v.04h-.07s-.02.05-.04.07c-.09.06-.22.12-.33.15.1.09.48.03.65.04.33.04.65.07.98.11-.16.17-.27.39-.47.51v.07c-.07.06-.15.12-.22.18v.07c-.07.06-.15.12-.22.18v.07c-.11.1-.22.19-.33.29v.07c-.08.07-.17.15-.25.22v.07c-.07.06-.15.12-.22.18v.07c-.07.06-.15.12-.22.18v.07h-.04c-.07.08-.15.14-.18.25h-.07c-.04.16-.11.12-.18.22v.07c-.12.11-.24.22-.36.33v.07c-.06.05-.12.1-.18.15v.07l-.33.29v.07c-.06.05-.12.1-.18.15v.07c-.07.06-.15.12-.22.18v.07s.05-.06.07-.07h.07v-.04h.07s.07-.1.11-.15h.07v-.04h.07s.02-.05.04-.07h.07s.02-.05.04-.07c.05-.01.1-.02.15-.04v-.04s.07-.02.11-.04c.01-.02.02-.05.04-.07h.07s.02-.05.04-.07c.04-.01.07-.02.11-.04v-.04h.07s.02-.05.04-.07h.07s.02-.05.04-.07h.07s.02-.05.04-.07c.05-.01.1-.02.15-.04.02-.04.05-.07.07-.11h.07s.02-.05.04-.07l.15-.04s.02-.05.04-.07c.04-.01.07-.02.11-.04v-.04s.1-.02.15-.04c.02-.04.05-.07.07-.11.05-.01.1-.02.15-.04v-.04s.07-.02.11-.04c.01-.02.02-.05.04-.07h.07s.02-.05.04-.07c.04-.01.07-.02.11-.04v-.04h.07s.02-.05.04-.07h.07s.02-.05.04-.07h.07s.02-.05.04-.07c.05-.01.1-.02.15-.04.01-.02.02-.05.04-.07h.07s.05-.07.07-.11h.07s.02-.05.04-.07c.04-.01.07-.02.11-.04v-.04h.07s.02-.05.04-.07c.04-.01.07-.02.11-.04v-.04h.07s.02-.05.04-.07h.07s.02-.05.04-.07l.15-.04s.02-.05.04-.07h.07s.02-.05.04-.07h.07c.1-.06.14-.13.29-.15-.05.54-.1,1.09-.15,1.63h-.04c-.05.17.02.54-.07.65.04.04,0,.02.07.04.02-.1.06-.17.11-.25.02-.01.05-.02.07-.04v-.07s.05-.02.07-.04v-.07h.04s.02-.07.04-.11c.02-.01.05-.02.07-.04v-.07s.07-.05.11-.07v-.07s.05-.02.07-.04c.01-.04.02-.07.04-.11h.04v-.07s.07-.05.11-.07c.01-.04.02-.07.04-.11.02-.01.05-.02.07-.04v-.07s.05-.02.07-.04c.01-.04.02-.07.04-.11h.04v-.07s.07-.05.11-.07c.01-.04.02-.07.04-.11.02-.01.05-.02.07-.04.04-.06,0-.08.07-.15.04-.04,0-.02.07-.04.03.07.08.18.11.25v.11h.04v.11h.04v.11h.04v.11h.04v.11h.04v.11h.04v.15h.04v.11h.04v.11h.04v.11h.04v.11h.04v.15h.04c.04.16.07.31.11.47h.04v.11h.04v.11h.04v.11h.04v.11h.04c.01.08.02.17.04.25h.04v.11h.04v.11h.04v.11h.04v.11h.04v.15h.04v.11h.04v.11h.04v.11h.04v.11h.04v.15h.04v.11h.04v.11h.04v.15h.04v.11h.04c.04.16.07.31.11.47.19-.21-.02-.81.07-1.13h.04v-.65h.04c0-.41.02-.82.04-1.23h.04c.06-.22-.02-.58.04-.8.06-.21-.09-.58.04-.73v-.73s.1.05.15.07c.01.02.02.05.04.07h.07s.05.07.07.11h.07s.05.07.07.11h.07s.05.07.07.11h.07s.02.05.04.07h.07s.05.07.07.11h.07s.05.07.07.11h.07s.05.07.07.11h.07s.05.07.07.11c.08.06.16.07.22.15h.04c-.08-.22-.17-.44-.25-.65h-.04v-.07h-.04v-.11h-.04s-.02-.1-.04-.15h-.04v-.11h-.04v-.07h-.04v-.11h-.04v-.07h-.04c-.01-.08-.02-.17-.04-.25.52.07,1.03.27,1.52.29v.04h.15v.04h.18v.04h.18v.04c.99.12,1.96.47,2.94.58v.04c.13.04.27,0,.36.07h.07v-.04s-.07-.02-.11-.04c-.01-.02-.02-.05-.04-.07ZM174.27,52.99s-.07-.05-.11-.07v-.07s-.07-.05-.11-.07v-.07l-.15-.11v-.07l-.18-.15v-.07c-.06-.05-.12-.1-.18-.15v-.07s-.1-.07-.15-.11v-.07c-.06-.05-.12-.1-.18-.15v-.07c-.08-.07-.17-.15-.25-.22-.01-.04-.02-.07-.04-.11-.38-.3-.68-.73-1.05-1.02v-.07h-.07c-.58-.7-1.31-1.37-2.03-1.96-.02-.04-.05-.07-.07-.11-.04-.01-.07-.02-.11-.04-.01-.02-.02-.05-.04-.07-.09-.08-.24-.26-.36-.29-.04-.13-.14-.2-.22-.29h-.04v-.07s-.07-.05-.11-.07v-.07s-.05-.02-.07-.04v-.07h-.04s-.02-.1-.04-.15h-.04c-.13-.33-.14-.8-.33-1.05-.29.07-.45.27-.73.33-.01.02-.02.05-.04.07-.05.01-.1.02-.15.04v.04h-.07v.04c-.07.02-.15.05-.22.07v.04h-.11v.04s-.1.02-.15.04v.04h-.11v.04s-.1.02-.15.04v.04h-.11v.04h-.07v.04c-.06.01-.12.02-.18.04v.04h-.11v.04h-.07v.04h-.11v.04h-.11v.04h-.11v.04h-.11v.04h-.11v.04h-.11v.04h-.11v.04c-.08.01-.17.02-.25.04v.04c-.08.01-.17.02-.25.04v.04c-.15.02-.29.05-.44.07v.04h-.11v.04h-.18v.04h-.15v.04h-.18v.04c-.41-.01-.82.18-1.23.15v.04c-.64.01-1.28.02-1.92.04v.04h-.04v-.04h-.65v-.04h-.44v-.04h-.36v-.04h-.29v-.04c-.41.03-.83-.19-1.23-.18v-.04h-.11v-.04h-.15v-.04h-.15v-.04h-.15v-.04h-.15v-.04h-.11v-.04h-.15v-.04h-.11v-.04h-.11v-.04h-.11v-.04h-.11v-.04h-.11v-.04c-.07-.01-.15-.02-.22-.04v-.04h-.07v-.04h-.15v-.04c-8.25.08-16.48.01-24.72,0v-.04h-.04v.04h-.07v-.04s-.05.02-.07.04v-.04h-.04v.04h-.15v-.04c-1.22.02-2.46-.08-3.67-.07v-.04h-.54v-.04h-.4v-.04h-.36v-.04h-.33v-.04h-.33v-.04h-.25v-.04h-.18v-.04h-.15v-.04h-.11v-.04h-.11v-.04h-.07c-.44-.2-.25-.76-.07-1.05v-.07h.04s.02-.1.04-.15h.04c.01-.07.02-.15.04-.22h.04s.02-.1.04-.15h.04v-.11h.04v-.07h.04v-.11h.04l.04-.15h.04v-.11h.04v-.07h.04v-.11h.04v-.07h.04v-.11h.04v-.07h.04v-.11h.04v-.07h.04v-.11h.04v-.07h.04c.01-.07.02-.15.04-.22h.04s.02-.1.04-.15h.04v-.11h.04s.02-.1.04-.15h.04v-.11h.04v-.07h.04v-.11h.04v-.07h.04v-.11h.04v-.07h.04c.01-.06.02-.12.04-.18h.04v-.11h.04v-.07h.04v-.11h.04v-.07h.04v-.11h.04v-.07h.04c.01-.07.02-.15.04-.22h.04l.04-.15h.04c.01-.07.02-.15.04-.22h.04l.04-.15h.04v-.07h.04c.07-.22.15-.44.22-.65h.04s.02-.1.04-.15h.04v-.11h.04v-.11h.04v-.07h.04v-.07h.04v-.07h.04c.01-.07.02-.15.04-.22h.04l.04-.15h.04c.01-.07.02-.15.04-.22h.04l.04-.15h.04c.01-.07.02-.15.04-.22h.04c.01-.06.02-.12.04-.18h.04s.02-.1.04-.15h.04v-.11h.04s.02-.1.04-.15h.04c.01-.07.02-.15.04-.22h.04v-.07h.04v-.11h.04v-.07h.04l.04-.18h.04v-.11h.04s.02-.1.04-.15h.04v-.11h.04v-.07h.04v-.11h.04s.02-.1.04-.15h.04v-.11h.04v-.07h.04c.01-.06.02-.12.04-.18h.04v-.11h.04v-.07h.04v-.11h.04v-.07h.04v-.11h.04v-.07h.04v-.11h.04v-.07h.04v-.11h.04c.01-.06.02-.12.04-.18h.04s.02-.1.04-.15h.04c.01-.07.02-.15.04-.22h.04c.01-.06.02-.12.04-.18h.04v-.07h.04v-.11h.04s.02-.1.04-.15h.04v-.11h.04v-.07h.04v-.11h.04s.02-.1.04-.15h.04v-.11h.04s.02-.1.04-.15h.04v-.11h.04v-.07h.04v-.11h.04s.02-.1.04-.15h.04c.01-.07.02-.15.04-.22h.04c.01-.06.02-.12.04-.18h.04s.02-.1.04-.15h.04c.05-.22.15-.36.25-.54h.07v-.07c.13-.13.3-.23.4-.4h.07s.02-.05.04-.07c.05-.01.1-.02.15-.04.01-.02.02-.05.04-.07,1.6-.38,3.3-.49,4.94-.65v-.04h.36v-.04h.4v-.04h.44v-.04c.28-.01.56-.02.83-.04v-.04h.44v-.04c.4,0,.8-.02,1.2-.04v-.04c.51-.04,1.05-.03,1.56-.04v-.04c.54-.02,1.09-.04,1.63-.04v-.04c.76.02,1.5-.07,2.29-.04v-.04c.64.03,1.22-.07,1.89-.04.05-.71.32-1.3.44-1.96h.04c.08-.25.17-.51.25-.76-1.21-.03-2.63.04-3.78.04v.04h-1.31v.04c-.57,0-1.08.01-1.67.04v.04h-.54c-.16.09-.46.01-.65.04v.04h-.62v.04h-.47v.04h-.51v.04h-.44v.04h-.47v.04h-.51v.04h-.44v.04h-.4v.04c-.4.02-.8.05-1.2.07v.04h-.4v.04h-.36v.04h-.33v.04h-.29v.04h-.25v.04h-.25v.04h-.25v.04c-.34-.01-.72.1-1.05.18h-.15v.04h-.11v.04h-.11v.04c-.07.01-.15.02-.22.04v.04c-.07.02-.15.05-.22.07v.04h-.07v.04s-.1.02-.15.04c-.01.02-.02.05-.04.07-.05.01-.1.02-.15.04-.01.02-.02.05-.04.07h-.07s-.02.05-.04.07c-.05.01-.1.02-.15.04-.01.02-.02.05-.04.07h-.07s-.05.07-.07.11c-.05.01-.1.02-.15.04-.01.02-.02.05-.04.07h-.07s-.02.05-.04.07h-.07s-.02.05-.04.07c-.05.01-.1.02-.15.04-.01.02-.02.05-.04.07h-.07v.04h-.07s-.02.05-.04.07h-.07s-.02.05-.04.07h-.07s-.05.07-.07.11h-.07s-.07.1-.11.15h-.07s-.05.07-.07.11h-.07c-.1.11-.19.25-.33.33v.07s-.07.05-.11.07v.07s-.05.02-.07.04l-.04.15s-.05.02-.07.04c-.02.07-.05.15-.07.22h-.04v.07h-.04c-.02.07-.05.15-.07.22h-.04v.11h-.04s-.02.1-.04.15h-.04v.11h-.04v.07h-.04c-.01.06-.02.12-.04.18h-.04v.11h-.04v.07h-.04v.11h-.04v.07h-.04s-.02.1-.04.15h-.04c-.01.07-.02.15-.04.22h-.04v.07h-.04v.11h-.04v.07h-.04v.11h-.04v.07h-.04c-.01.06-.02.12-.04.18h-.04v.11h-.04v.07h-.04c-.01.07-.02.15-.04.22h-.04s-.02.1-.04.15h-.04v.07h-.04v.11h-.04v.11h-.04v.07h-.04c-.01.07-.02.15-.04.22h-.04v.07h-.04v.11h-.04c-.01.06-.02.12-.04.18h-.04v.07h-.04v.11h-.04l-.04.15h-.04v.07h-.04c-.01.06-.02.12-.04.18h-.04c-.01.07-.02.15-.04.22h-.04v.07h-.04v.11h-.04v.07h-.04c-.01.06-.02.12-.04.18h-.04c-.01.07-.02.15-.04.22h-.04s-.02.1-.04.15h-.04v.11h-.04s-.02.1-.04.15h-.04v.11h-.04v.07h-.04c-.01.07-.02.15-.04.22h-.04v.07h-.04v.11h-.04c-.01.06-.02.12-.04.18h-.04v.07h-.04v.11h-.04v.07h-.04v.11h-.04l-.04.15h-.04v.11h-.04v.07h-.04c-.01.06-.02.12-.04.18h-.04c-.01.07-.02.15-.04.22h-.04v.07h-.04v.11h-.04v.07h-.04c-.01.06-.02.12-.04.18h-.04c-.01.07-.02.15-.04.22h-.04s-.02.1-.04.15h-.04c-.01.07-.02.15-.04.22h-.04s-.02.1-.04.15h-.04c-.07.22-.15.44-.22.65h-.04s-.02.1-.04.15h-.04c-.01.07-.02.15-.04.22h-.04v.07h-.04v.11h-.04s-.02.1-.04.15h-.04c-.01.06-.02.12-.04.18h-.04c-.01.07-.02.15-.04.22h-.04v.07h-.04v.11h-.04v.07h-.04v.11h-.04s-.02.1-.04.15h-.04v.11h-.04v.11h-.04v.07h-.04c-.01.07-.02.15-.04.22h-.04v.07h-.04c0,.2-.1.27-.15.47-.04.01-.07.02-.11.04-.1-.49-.19-.89-.15-1.38h-.04c.02-.27,0-.5-.15-.73-.08-.02-.09-.03-.15-.07v-.04h-.07v-.04h-.07v-.04h-.11v-.04c-1.23.04-2.56-.07-3.78.04v.04h-.11v.04h-.07v.04h-.11v.04h-.07v.04h-.07s-.02.05-.04.07c-.05.01-.1.02-.15.04-.04.05-.07.1-.11.15-.04.01-.07.02-.11.04v.07h-.07c-.02.08-.03.09-.07.15h-.04v.07s-.05.02-.07.04c-.01.05-.02.1-.04.15h-.04s-.02.1-.04.15h-.04v.11h-.04v.15h-.04v.25h-.04c.04.58-.09,1.34.07,1.85h.04s.02.1.04.15h.04v.07s.05.02.07.04v.07c.13.08.23.21.33.33h.07s.02.05.04.07h.07v.04s.1.02.15.04v.04c.07.01.15.02.22.04v.04h.15v.04c.08.01.17.02.25.04v.04l.29.04v.04h.15v.04h.15v.04h.15v.04h.11v.04c.1.01.19.02.29.04v.04h.15v.04h.15v.04h.15v.04h.18v.04h.11v.04c.41,0,.74.25,1.23.22-.02.11-.05.22-.07.33-.02.01-.05.02-.07.04l-.04.15s-.07.05-.11.07v.07s-.07.05-.11.07v.07c-.07.06-.15.12-.22.18v.07c-.1.08-.19.17-.29.25v.07c-.07.06-.15.12-.22.18v.07c-.13.12-.27.24-.4.36v.07c-.06.05-.12.1-.18.15v.07s-.07.05-.11.07v.07s-.07.05-.11.07v.07s-.05.02-.07.04v.07s-.07.05-.11.07v.07s-.05.02-.07.04v.07s-.05.02-.07.04v.07h-.04s-.02.07-.04.11c-.02.01-.05.02-.07.04v.07s-.07.05-.11.07v.07s-.05.02-.07.04v.07s-.07.05-.11.07v.07s-.07.05-.11.07v.07l-.15.11v.07s-.05.02-.07.04v.07s-.07.05-.11.07l-.04.15s-.05.02-.07.04c-.02.07-.05.15-.07.22h-.04v.07h-.04v.07h-.04c-.02.07-.05.15-.07.22h-.04c-.01.06-.02.12-.04.18h-.04v.07h-.04c-.47,1.29-.47,2.99-.44,4.76.02,2.65-.05,5.3.04,7.95h.04c.01.11.02.22.04.33h.04c.01.07.02.15.04.22h.04v.07h.04v.11h.04c.01.06.02.12.04.18h.04l.04.15h.04s.02.1.04.15c.02.01.05.02.07.04.02.07.05.15.07.22.02.01.05.02.07.04v.07s.05.02.07.04v.07s.05.02.07.04v.07s.05.02.07.04v.07s.05.02.07.04v5.05h.04v.18h.04c.02.11.05.22.07.33h.04s.02.1.04.15h.04v.07h.04s.02.07.04.11c.02.01.05.02.07.04v.07c.15.12.29.24.4.4h.07s.02.05.04.07h.07v.04c.07.02.15.05.22.07v.04c.07.01.15.02.22.04v.04h.18v.04h5.23c.77,0,1.57.05,2.07-.22.01-.02.02-.05.04-.07h.07s.05-.07.07-.11h.07c.07-.12.18-.21.29-.29v-.07s.05-.02.07-.04l.04-.11h.04v-.07h.04v-.07h.04v-.11h.04v-.07h.04c.02-.15.05-.29.07-.44h.04c.04-1.06-.07-2.19.04-3.23v-.04h.04s-.01.05.04.04c.05,0-.01-.04.04-.04v.04h.18s.01-.04.11-.04l.04.04v-.04c11.94.04,23.91-.07,35.83.04.04,1.1-.08,2.34.04,3.41h.04v.15h.04v.11h.04c.02.07.05.15.07.22h.04v.07s.05.02.07.04v.07s.05.02.07.04v.07c.14.11.26.22.36.36.65.49,1.55.38,2.4.36h5.05v-.04c.15-.02.29-.05.44-.07v-.04c.07-.02.15-.05.22-.07v-.04h.07s.02-.05.04-.07c.05-.01.1-.02.15-.04.04-.05.07-.1.11-.15h.07s.05-.07.07-.11h.04v-.07s.1-.07.15-.11v-.07s.05-.02.07-.04v-.07h.04s.02-.1.04-.15h.04c.01-.07.02-.15.04-.22h.04c.17-1.73.03-3.61.07-5.37h.04v-.07s.05-.02.07-.04v-.07s.05-.02.07-.04c.01-.04.02-.07.04-.11h.04s.02-.1.04-.15c.02-.01.05-.02.07-.04.01-.05.02-.1.04-.15.02-.01.05-.02.07-.04v-.11s.05-.02.07-.04v-.11h.04l.04-.15h.04c.01-.07.02-.15.04-.22h.04v-.07h.04v-.11h.04v-.11h.04c.01-.11.02-.22.04-.33h.04c.04-3.51.12-7.11-.04-10.6-.1-.18-.19-.36-.29-.54ZM131.33,58.76c-.1.02-.17.08-.25.11h-.25v.04c-1.59-.08-3.12-.47-4.72-.58v-.04h-.25v-.04h-.29v-.04h-.25v-.04h-.25v-.04h-.25v-.04c-1.53-.23-3.15-.26-4.61-.76-.01-.02-.02-.05-.04-.07-.05-.01-.1-.02-.15-.04l-.15-.18h-.07v-.04s-.07-.05-.11-.07v-.07s-.1-.07-.15-.11v-.07s-.05-.02-.07-.04v-.07s-.07-.05-.11-.07v-.07h-.04c-.02-.07-.05-.15-.07-.22h-.04c-.02-.11-.05-.22-.07-.33h-.04v-.18h-.04v-.73h-.04c-.04-.14.06-.5,0-.73h-.04s.02-.07.04-.11h-.04c-.07-.3.07-.84.15-1.02v-.11h.04v-.11h.04v-.07h.04v-.07s.05-.02.07-.04v-.07c.15-.13.29-.27.44-.4h.07v-.04s.1-.02.15-.04v-.04c.08-.01.17-.02.25-.04v-.04c1.24.02,2.08.5,3.23.65v.04h.15v.04h.15v.04h.15v.04h.15v.04h.15v.04h.15v.04h.15v.04h.15v.04h.15v.04c.98.2,2.04.49,3.01.76h.18v.04c.1.01.19.02.29.04v.04h.15v.04c.13.02.27.05.4.07v.04h.11v.04c.07.01.15.02.22.04v.04s.1.02.15.04v.04s.1.02.15.04c.02.04.05.07.07.11h.07c.14.2.33.35.51.51v.07s.05.02.07.04c.01.04.02.07.04.11h.04v.07s.05.02.07.04v.07s.07.05.11.07v.07s.05.02.07.04v.07s.05.02.07.04c.01.05.02.1.04.15.02.01.05.02.07.04v.07h.04v.07s.05.02.07.04v.07l.07.07v.07h.04v.07h.04v.07s.05.02.07.04c.02.07.05.15.07.22h.04v.07h.04v.07h.04v.07h.04v.07h.04v.07h.04v.07h.04c.17.57.65,1.13.04,1.71ZM157.21,56.87s-.07.05-.11.07v.07s-.1.07-.15.11v.07s-.05.02-.07.04c-.02.04-.05.07-.07.11h-.04v.07c-.07.09-.14.06-.18.22h-.07c-.04.16-.16.19-.25.29-.01.04-.02.07-.04.11-.62.56-1.04,1.23-1.92,1.49h-.15v.04h-.15v.04h-.18v.04c-5.46,0-11.07.19-16.52-.07h-.15v-.04h-.11v-.04h-.11v-.04h-.11v-.04h-.07v-.04h-.11v-.04h-.07v-.04h-.07s-.02-.05-.04-.07c-.05-.01-.1-.02-.15-.04-.02-.04-.05-.07-.07-.11h-.07l-.11-.15s-.07-.02-.11-.04c-.01-.02-.02-.05-.04-.07-.13-.12-.27-.24-.4-.36v-.07h-.07c-.04-.13-.17-.24-.25-.33-.02-.01-.05-.02-.07-.04v-.07c-.08-.07-.17-.15-.25-.22v-.07c-.08-.07-.17-.15-.25-.22v-.07c-.06-.05-.12-.1-.18-.15v-.07s-.1-.07-.15-.11c-.01-.04-.02-.07-.04-.11-.02-.01-.05-.02-.07-.04v-.07h-.04s-.02-.1-.04-.15h-.04v-.11h-.04c-.17-.86.82-.66,1.49-.65h21.56v.04h.07s.05.07.07.11h.04c.04.06,0,.08.07.15,0,.28-.03.48-.15.65ZM172.42,54.62h-.04v.69h-.04v.4h-.04v.18h-.04c-.02.11-.05.22-.07.33h-.04c-.02.07-.05.15-.07.22h-.04l-.04.15s-.05.02-.07.04v.07s-.07.05-.11.07v.07s-.05.02-.07.04c-.06.07-.12.15-.18.22h-.07s-.07.1-.11.15c-.05.01-.1.02-.15.04l-.07.07h-.07s-.02.05-.04.07h-.11v.04h-.07v.04c-.07.01-.15.02-.22.04v.04c-1.04.09-2.08.35-3.12.4v.04c-.76.05-1.57.26-2.32.29v.04h-.25v.04h-.29v.04h-.33v.04h-.25v.04c-.71.02-1.42.24-2.14.25v.04h-.29v.04c-.51,0-1.31.25-1.74-.04-.02-.04-.05-.07-.07-.11-.04-.01-.07-.02-.11-.04v-.07s-.07-.05-.11-.07v-.07h-.04c-.1-.21,0-.61.07-.76h.04v-.07h.04v-.07l.07-.07v-.07s.05-.02.07-.04v-.07s.05-.02.07-.04v-.07s.07-.05.11-.07v-.07s.05-.02.07-.04v-.07s.05-.02.07-.04v-.07s.05-.02.07-.04v-.07h.04s.02-.07.04-.11c.02-.01.05-.02.07-.04v-.07s.05-.02.07-.04c.01-.04.02-.07.04-.11.04-.02.07-.05.11-.07v-.07s.05-.02.07-.04v-.07s.07-.05.11-.07v-.07h.04s.02-.07.04-.11c.04-.02.07-.05.11-.07.01-.05.02-.1.04-.15.02-.01.05-.02.07-.04.01-.04.02-.07.04-.11h.04l.04-.15s.05-.02.07-.04v-.07h.04s.02-.07.04-.11c.02-.01.05-.02.07-.04v-.07c.15-.12.29-.24.4-.4h.07s.07-.1.11-.15c.05-.01.1-.02.15-.04.01-.02.02-.05.04-.07.11-.04.22-.07.33-.11v-.04h.07v-.04c.54-.13,1.07-.35,1.63-.4v-.04c.11-.01.22-.02.33-.04v-.04h.15v-.04h.15v-.04h.15v-.04h.15c1.67-.51,3.45-.85,5.12-1.34h.18v-.04h.15v-.04h.25v-.04c.81.03,1.23.47,1.45,1.09v.15h.04v.18h.04c-.03.35.11.78.04,1.16ZM141.27,39.92c.17-.01.34-.02.51-.04v-.04h.29v-.04h.22v-.04h.25v-.04h.29v-.04c.16-.05.4.02.51-.07h.18v-.04c-.99-.11-1.98-.22-2.98-.33,0-.12,0-.16.07-.22,0-.1-.01-.16-.04-.22h-.18c.01-.07.02-.15.04-.22.02-.01.05-.02.07-.04.01-.05.02-.1.04-.15.02-.01.05-.02.07-.04v-.07s.05-.02.07-.04v-.07l.07-.07v-.07h.04v-.07s.05-.02.07-.04v-.07h.04v-.07s.05-.02.07-.04v-.07h.04c.05-.08-.02-.05.07-.11v-.07c-.11.06-.22.12-.33.18-.01.02-.02.05-.04.07h-.07s-.02.05-.04.07h-.07s-.02.05-.04.07h-.07v.04h-.07s-.02.05-.04.07c-.07.02-.15.05-.22.07-.01.02-.02.05-.04.07h-.07v.04c-.07.05-.12.09-.22.11-.04.04,0,.02-.07.04-.07-.12-.15-.24-.18-.4h-.04c-.08.15-.19.22-.44.22-.13-1.11-.28-2.19-.44-3.3h-.04v.29h-.04v.33h-.04v.25h-.04v.29h-.04v.29h-.04v.29h-.04v.29h-.04v.33h-.04v.4h-.04c-.01.19-.02.39-.04.58h-.11s-.02-.05-.04-.07c-.1-.06-.19-.08-.25-.18h-.11c.11.04-.03.38-.04.44-.14-.02-.26-.08-.36-.15-.01-.02-.02-.05-.04-.07-.05-.01-.1-.02-.15-.04-.01-.02-.02-.05-.04-.07h-.07s-.02-.05-.04-.07h-.07s-.02-.05-.04-.07c-.05-.01-.1-.02-.15-.04-.01-.02-.02-.05-.04-.07h-.07s-.02-.05-.04-.07h-.07s-.02-.05-.04-.07c-.05-.01-.1-.02-.15-.04v-.04c-.07-.05-.12-.09-.22-.11.02.08.03.09.07.15h.04v.07s.05.02.07.04v.07s.05.02.07.04v.07h.04s.02.07.04.11c.02.01.05.02.07.04v.07s.07.05.11.07c.01.05.02.1.04.15.04.02.07.05.11.07v.07s.05.02.07.04v.07s.05.02.07.04v.07s.05.02.07.04v.07h.04s.03.06.04.15c-.11,0-.24.02-.29.07h-.15s.05.07.07.11h.04v.07h.04v.07s.05.02.07.04v.11h.04v.11h-.04v.04h-.29v.04h-.29v.04h-.33v.04h-.29v.04h-.33v.04h-.29v.04h-.25v.04h-.29v.04c-.21-.01-.41.01-.62.07.11.1.44.02.62.07v.04h.25v.04h.33v.04h.4v.04h.47v.04c.33.02.65.05.98.07-.03.27-.17.32-.22.51.16.03.31.09.44.15-.03.13-.09.2-.15.29v.07s-.05.02-.07.04v.07s-.05.02-.07.04v.07s-.05.02-.07.04v.07s-.05.02-.07.04c-.01.04-.02.07-.04.11h-.04c-.02.07-.05.15-.07.22-.02.01-.05.02-.07.04v.07s-.05.02-.07.04v.07s-.05.02-.07.04c-.1.16-.18.41-.33.51v.07c.11-.06.23-.14.29-.25h.07s.05-.07.07-.11h.07s.07-.1.11-.15h.07s.07-.1.11-.15h.07s.07-.1.11-.15h.07s.07-.1.11-.15h.07s.07-.1.11-.15h.07c.07-.08.15-.17.22-.25.04-.01.07-.02.11-.04v-.04h.15c0,.11.05.3.11.36v.04c.07-.05.15-.1.22-.15v-.04h.07s.02-.05.04-.07h.07c.07.25.15.51.22.76h.04v.15h.04v.11h.04v.11h.04c.04.1,0,.11.07.18v.04c.08-.09.03-.23.07-.36h.04c.06-.35.12-.7.18-1.05.04.01.07.02.11.04v.04h.07v.04c.08.06.13.12.25.15.05-.15.1-.29.15-.44.13.02.2.05.29.11.01.02.02.05.04.07h.07s.02.05.04.07h.07s.02.05.04.07c.05.01.1.02.15.04.01.02.02.05.04.07l.11.04v.04s.1.02.15.04c.01.02.02.05.04.07.05.01.1.02.15.04.01.02.02.05.04.07h.07v.04c.07.02.15.05.22.07-.02-.1-.06-.17-.11-.25-.02-.01-.05-.02-.07-.04-.01-.05-.02-.1-.04-.15h-.04s-.02-.07-.04-.11c-.02-.01-.05-.02-.07-.04v-.07s-.05-.02-.07-.04v-.07s-.05-.02-.07-.04v-.07s-.05-.02-.07-.04v-.07h-.04v-.07s-.05-.02-.07-.04v-.07h-.04v-.07s-.05-.02-.07-.04c-.04-.07,0-.08-.07-.15.05-.04.41-.1.51-.11-.1-.18-.31-.31-.36-.54.26-.05.53-.13.8-.11v-.04Z"/>
</svg>